<svg width="126" height="40" fill="none" xmlns="http://www.w3.org/2000/svg"><g clip-path="url(#a)"><path d="M0 39.888c.679-.497 1.173-1.177 1.733-1.79 3.95-4.32 7.885-8.657 11.836-12.977.254-.277.261-.44.06-.755-2.686-4.166-5.352-8.343-8.022-12.519-.073-.115-.127-.244-.204-.396.213-.127.424-.076.62-.076 3.995-.003 7.989.004 11.983-.013.432-.002.689.111.918.498 1.77 2.99 3.564 5.964 5.35 8.945 2.395 3.998 4.787 7.999 7.184 11.997 1.355 2.258 2.717 4.513 4.073 6.771.06.102.094.219.148.347-.183.104-.358.064-.522.064-3.925.004-7.85 0-11.774.015-.375 0-.582-.098-.777-.443-1.025-1.808-2.094-3.589-3.127-5.392-.219-.382-.358-.399-.66-.08-1.759 1.856-3.539 3.69-5.3 5.543-.246.258-.492.373-.859.372-4.22-.014-8.44-.008-12.66-.007v-.105ZM104.536 14.867c1.213-.766 2.352-1.567 3.564-2.234 3.353-1.846 6.901-2.906 10.771-2.36 2.957.418 5.14 1.962 6.346 4.75.339.783.366 1.679.365 2.541-.005 2.358-.231 4.702-.514 7.039a217.488 217.488 0 0 1-.736 5.638c-.324 2.203-.702 4.398-1.051 6.598-.138.866-.279 1.733-.387 2.602-.048.385-.181.536-.592.534-3.89-.015-7.78-.015-11.67-.001-.41 0-.508-.114-.441-.518.317-1.904.618-3.81.907-5.718.253-1.665.47-3.336.722-5 .242-1.6.416-3.205.492-4.82.048-.983.026-1.96-.173-2.937-.247-1.207-1.05-1.948-2.269-2.103-2.448-.31-3.973.955-5.112 2.938-.569.99-.764 2.1-1.017 3.188-.674 2.904-1.189 5.84-1.743 8.768-.369 1.946-.68 3.904-.994 5.86-.063.392-.297.36-.563.36-2.494-.002-4.989 0-7.483 0-1.239 0-2.478-.009-3.716.005-.353.004-.469-.038-.391-.46.324-1.76.587-3.53.882-5.295.35-2.092.715-4.182 1.063-6.275.28-1.679.54-3.36.819-5.039.356-2.145.73-4.287 1.083-6.433.245-1.488.48-2.979.69-4.471.067-.481.225-.682.754-.679 3.331.026 6.664.025 9.995 0 .533-.004.645.151.576.66-.09.659-.083 1.33-.188 1.992-.042.267-.076.547.013.87h-.002ZM61.919 39.987c-1.832 0-3.664-.006-5.495.006-.362.002-.51-.018-.417-.482.42-2.115.781-4.242 1.177-6.362.455-2.429.931-4.854 1.385-7.284.387-2.067.747-4.141 1.13-6.21.566-3.05 1.149-6.098 1.712-9.15.452-2.448.885-4.899 1.33-7.349.166-.914.348-1.825.512-2.739.05-.28.153-.41.475-.408 3.68.012 7.362.012 11.042 0 .364-.002.403.138.346.442A832.503 832.503 0 0 0 74.1 5.985c-.357 1.985-.698 3.972-1.06 5.956-.453 2.483-.928 4.963-1.381 7.447-.387 2.121-.752 4.247-1.136 6.369-.459 2.535-.931 5.07-1.394 7.604-.382 2.086-.764 4.173-1.126 6.264-.056.327-.204.372-.485.37-1.867-.009-3.733-.004-5.6-.004v-.005.001ZM44.988 39.992c-1.9 0-3.802-.007-5.702.005-.388.002-.525-.018-.424-.508.417-2.026.76-4.066 1.14-6.1.355-1.912.733-3.821 1.085-5.735.35-1.913.674-3.83 1.024-5.745.261-1.43.55-2.856.817-4.287.36-1.929.718-3.86 1.056-5.793.062-.35.209-.464.553-.463 3.836.009 7.673.009 11.51 0 .35 0 .437.085.366.454-.478 2.46-.936 4.924-1.391 7.39-.455 2.463-.89 4.931-1.35 7.394-.453 2.43-.934 4.853-1.387 7.282-.35 1.878-.68 3.76-1.003 5.643-.058.339-.182.47-.538.467-1.918-.016-3.837-.008-5.755-.008v.004ZM78.838 39.992c-1.866 0-3.733-.008-5.6.006-.359.003-.475-.05-.394-.462.496-2.51.968-5.027 1.433-7.544.353-1.913.674-3.833 1.027-5.745.385-2.086.798-4.165 1.188-6.25.511-2.74 1.014-5.48 1.508-8.223.056-.306.193-.404.489-.403 3.662.006 7.325.007 10.988-.001.359 0 .435.107.373.464-.485 2.71-.945 5.423-1.424 8.134-.38 2.158-.782 4.313-1.162 6.471-.353 2.002-.683 4.01-1.037 6.012-.348 1.968-.716 3.932-1.07 5.9-.071.397-.144.795-.178 1.197-.03.364-.2.454-.542.452-1.866-.014-3.733-.006-5.599-.006v-.002Z" fill="#000"/><path d="M41.3 11.45c-.318.283-.546.466-.752.67-3.712 3.659-7.424 7.318-11.128 10.984-.293.29-.476.476-.782-.016a497.532 497.532 0 0 0-4.738-7.475c-.215-.333-.121-.485.103-.68 1.26-1.1 2.525-2.195 3.781-3.3.181-.16.364-.245.607-.244 4.185.005 8.37.004 12.556.006.051 0 .103.016.353.056v-.001Z" fill="#C93127"/><path d="M50.983 7.835c-1.882 0-3.764-.013-5.646.01-.465.005-.652-.078-.548-.597.306-1.529.574-3.065.86-4.598.13-.706.315-1.406.382-2.118.043-.459.219-.532.617-.52 2.438.076 4.877-.06 7.316.004C55.252.05 56.54.103 57.83.12c.384.005.446.104.379.492-.216 1.242-.367 2.687-.553 3.934-.143.954-.323 1.901-.44 2.857-.046.38-.206.438-.535.436-1.9-.013-3.799-.007-5.698-.007v.002ZM91.601.018c.43-.005.497.144.422.523-.44 2.27-.966 4.835-1.391 7.107-.058.311-.199.438-.526.437-3.644-.009-7.287-.01-10.931 0-.387 0-.482-.137-.412-.505.35-1.842.686-3.687 1.027-5.53.092-.499.203-.996.266-1.5.049-.397.196-.548.625-.542 1.777.028 9.09.031 10.92.009v.001Z" fill="#000"/></g><defs><clipPath id="a"><path fill="#fff" d="M0 0h125.581v40H0z"/></clipPath></defs></svg>