<svg width="45" height="56" fill="none" xmlns="http://www.w3.org/2000/svg"><path d="M19.038 7h-6.923a12 12 0 0 0-4.636.932 12.108 12.108 0 0 0-3.93 2.656 12.261 12.261 0 0 0-2.627 3.974 12.369 12.369 0 0 0 0 9.376 12.261 12.261 0 0 0 2.627 3.974 12.107 12.107 0 0 0 3.93 2.655 12 12 0 0 0 4.636.933h6.923V42H3.462v7h15.576v7h6.924v-7h6.923c3.213 0 6.294-1.29 8.567-3.588A12.32 12.32 0 0 0 45 36.75a12.32 12.32 0 0 0-3.548-8.662 12.048 12.048 0 0 0-8.567-3.588h-6.923V14h15.576V7H25.962V0h-6.924v7Zm6.924 24.5h6.923c1.377 0 2.697.553 3.671 1.538a5.28 5.28 0 0 1 1.52 3.712 5.28 5.28 0 0 1-1.52 3.712A5.163 5.163 0 0 1 32.885 42h-6.923V31.5Zm-6.924-7h-6.923a5.143 5.143 0 0 1-1.987-.4 5.19 5.19 0 0 1-1.684-1.138 5.255 5.255 0 0 1-1.126-1.703 5.301 5.301 0 0 1 1.126-5.721 5.19 5.19 0 0 1 1.684-1.138c.63-.264 1.306-.4 1.987-.4h6.923v10.5Z" fill="#fff"/></svg>