<svg width="265" height="84" fill="none" xmlns="http://www.w3.org/2000/svg"><g clip-path="url(#a)"><path d="M0 83.765c1.433-1.043 2.476-2.472 3.657-3.759 8.336-9.072 16.638-18.18 24.977-27.253.535-.581.55-.923.124-1.584-5.666-8.748-11.293-17.521-16.926-26.29-.155-.242-.267-.513-.431-.832.449-.266.895-.16 1.309-.16 8.43-.006 16.857.01 25.287-.026.91-.005 1.452.233 1.936 1.045 3.734 6.279 7.522 12.525 11.289 18.784 5.053 8.398 10.103 16.798 15.161 25.194 2.859 4.743 5.733 9.478 8.594 14.22.128.213.198.459.313.728-.386.22-.756.135-1.103.135-8.281.009-16.563 0-24.844.03-.792.003-1.23-.206-1.64-.929-2.163-3.796-4.418-7.537-6.598-11.324-.462-.801-.756-.837-1.393-.167-3.712 3.896-7.468 7.75-11.186 11.64-.518.541-1.037.783-1.81.78C17.81 83.97 8.904 83.983 0 83.986v-.222.002ZM220.59 31.22c2.56-1.608 4.963-3.29 7.521-4.69 7.076-3.877 14.562-6.104 22.729-4.955 6.241.877 10.846 4.118 13.39 9.971.717 1.647.774 3.528.772 5.339-.011 4.952-.489 9.873-1.085 14.781-.482 3.952-.969 7.903-1.552 11.84-.686 4.625-1.482 9.236-2.22 13.856-.29 1.819-.588 3.638-.816 5.464-.102.808-.382 1.125-1.249 1.12a3380.39 3380.39 0 0 0-24.626-.001c-.864.002-1.072-.24-.931-1.088.67-3.998 1.305-8 1.915-12.008.533-3.496.99-7.004 1.523-10.501.511-3.357.878-6.73 1.039-10.12.1-2.065.053-4.116-.367-6.168-.519-2.534-2.215-4.091-4.786-4.415-5.167-.653-8.386 2.003-10.789 6.168-1.2 2.081-1.611 4.409-2.144 6.696-1.424 6.097-2.509 12.263-3.679 18.411-.778 4.087-1.435 8.199-2.098 12.308-.133.823-.626.754-1.187.754-5.264-.002-10.528 0-15.792 0-2.613 0-5.228-.017-7.841.011-.745.01-.989-.08-.825-.967.683-3.694 1.238-7.413 1.861-11.118.739-4.393 1.508-8.782 2.244-13.178.591-3.525 1.139-7.057 1.727-10.58.752-4.505 1.541-9.004 2.286-13.51a397.074 397.074 0 0 0 1.457-9.39c.141-1.01.473-1.432 1.589-1.425 7.031.053 14.063.051 21.093 0 1.124-.009 1.36.317 1.214 1.384-.19 1.385-.174 2.796-.396 4.185-.088.56-.161 1.15.027 1.826h-.004ZM130.66 83.974c-3.865 0-7.732-.014-11.596.01-.763.005-1.074-.037-.88-1.011.889-4.442 1.649-8.909 2.485-13.36.96-5.1 1.965-10.194 2.923-15.295.816-4.343 1.576-8.698 2.385-13.042 1.194-6.406 2.423-12.807 3.613-19.215.952-5.14 1.865-10.288 2.805-15.433.349-1.92.734-3.832 1.081-5.752.106-.587.323-.86 1.002-.858 7.766.026 15.535.026 23.301 0 .767-.002.849.29.73.93-.728 3.871-1.444 7.745-2.145 11.621-.753 4.167-1.472 8.34-2.235 12.507-.957 5.215-1.958 10.422-2.916 15.638-.816 4.456-1.585 8.92-2.396 13.375-.969 5.325-1.966 10.646-2.943 15.968-.805 4.382-1.611 8.764-2.374 13.155-.12.686-.431.781-1.024.78-3.939-.02-7.877-.012-11.816-.012v-.009.002ZM94.933 83.982c-4.01 0-8.023-.013-12.033.011-.818.005-1.108-.037-.893-1.067.88-4.253 1.603-8.538 2.403-12.809.752-4.016 1.548-8.025 2.29-12.043.741-4.018 1.424-8.045 2.163-12.066.55-3.004 1.16-5.997 1.724-9.001a1131.52 1131.52 0 0 0 2.228-12.166c.13-.734.44-.974 1.166-.972 8.095.018 16.191.018 24.287 0 .739 0 .924.178.774.952a1775.272 1775.272 0 0 0-2.936 15.518c-.959 5.174-1.879 10.357-2.847 15.53-.958 5.1-1.972 10.19-2.928 15.291a823.707 823.707 0 0 0-2.117 11.85c-.122.713-.383.988-1.135.981-4.048-.033-8.095-.015-12.143-.015l-.003.006ZM166.361 83.982c-3.937 0-7.877-.015-11.814.014-.758.006-1.004-.107-.833-.97a1287.897 1287.897 0 0 0 3.024-15.842c.745-4.018 1.421-8.05 2.167-12.066.813-4.38 1.684-8.746 2.507-13.124 1.078-5.753 2.14-11.508 3.183-17.268.117-.644.407-.85 1.03-.848 7.729.014 15.458.016 23.187-.002.758 0 .92.226.787.974-1.024 5.691-1.994 11.389-3.004 17.082-.803 4.533-1.65 9.057-2.452 13.59-.745 4.205-1.442 8.42-2.189 12.625-.734 4.133-1.51 8.258-2.257 12.39-.15.834-.305 1.67-.376 2.513-.062.766-.422.954-1.143.95-3.937-.029-7.877-.013-11.814-.013l-.003-.005Z" fill="#fff"/><path d="M87.151 24.045c-.672.594-1.152.978-1.587 1.406-7.833 7.684-15.666 15.367-23.483 23.067-.617.608-1.004 1-1.65-.034a1044.53 1044.53 0 0 0-9.996-15.697c-.456-.7-.257-1.019.216-1.43 2.66-2.307 5.328-4.608 7.979-6.928.382-.335.767-.515 1.28-.513 8.832.011 17.664.009 26.496.013.108 0 .217.034.745.118v-.002Z" fill="#C93127"/><path d="M107.583 16.454c-3.97 0-7.943-.029-11.914.02-.981.011-1.375-.164-1.156-1.253.646-3.211 1.212-6.437 1.813-9.656.276-1.483.665-2.954.807-4.45.09-.962.462-1.115 1.302-1.09 5.145.159 10.291-.127 15.438.008 2.719.071 5.439.182 8.158.22.811.01.942.22.8 1.034-.455 2.609-.774 5.642-1.167 8.262-.301 2.002-.681 3.992-.927 6-.097.797-.435.919-1.129.914-4.008-.027-8.017-.013-12.025-.013v.004ZM193.295.038c.907-.011 1.048.301.891 1.098-.928 4.766-2.038 10.153-2.935 14.926-.122.652-.421.918-1.11.916-7.689-.018-15.379-.02-23.068 0-.815 0-1.017-.286-.868-1.06.74-3.868 1.448-7.742 2.166-11.611.195-1.05.429-2.093.562-3.151.104-.834.413-1.152 1.319-1.138 3.75.057 19.181.064 23.041.017l.002.003Z" fill="#fff"/></g><defs><clipPath id="a"><path fill="#fff" d="M0 0h265v84H0z"/></clipPath></defs></svg>